P2
48 44
255
238 238 238 238 238 238 238 238 238 238 238 238 238 238 238 238 238 238 238 
242 236 237 238 237 238 140 102 101 112 125 143 153 152 136 127 121 110 90 58 
38 43 59 91 191 227 200 145 101 238 238 238 238 238 238 238 238 238 238 238 
238 238 238 238 238 238 238 238 237 234 237 240 237 221 103 76 97 117 134 148 
153 151 139 130 121 105 82 47 37 33 29 45 170 219 209 182 168 238 238 238 238 
238 238 238 238 238 238 238 238 238 238 238 238 238 238 236 230 234 241 241 
233 195 86 72 100 119 146 152 151 147 139 130 114 94 71 36 34 32 30 49 183 206 
182 170 202 238 238 238 238 238 238 238 238 238 238 238 238 238 238 238 238 
238 238 237 233 235 238 236 219 158 92 89 115 134 146 149 148 142 132 123 110 
89 63 34 32 32 33 57 216 195 139 104 138 238 238 238 238 238 238 238 238 238 
238 238 238 238 238 238 238 238 238 237 236 232 234 233 217 125 91 92 109 128 
151 155 150 137 120 113 109 99 82 56 36 30 43 89 231 169 127 113 123 238 238 
238 238 238 238 238 238 238 238 238 238 238 238 238 238 238 238 237 237 237 
237 231 203 73 90 105 120 139 158 152 142 132 125 118 103 81 60 43 35 30 68 146 
228 148 113 112 125 238 238 238 238 238 238 238 238 238 238 238 238 238 238 
238 238 238 238 237 235 239 240 226 181 52 94 114 126 144 159 151 139 131 127 
118 98 67 41 34 33 29 86 191 211 135 107 113 130 238 238 238 238 238 238 238 
238 238 238 238 238 238 238 238 238 238 238 237 235 237 240 214 153 56 100 116 
124 142 158 152 141 130 120 109 92 63 36 35 31 27 97 212 189 127 110 119 132 
238 238 238 238 238 238 238 238 238 238 238 238 238 238 238 238 238 238 238 
244 235 235 193 109 43 99 121 129 144 161 148 130 115 107 103 83 56 35 31 30 
31 108 226 166 119 111 120 132 238 238 238 238 238 238 238 238 238 238 238 238 
238 238 238 238 238 238 236 232 228 232 171 59 41 97 121 133 147 148 139 129 
117 108 99 76 51 34 31 29 70 155 229 135 112 114 125 135 238 238 238 238 238 
238 238 238 238 238 238 238 238 238 238 238 238 238 237 238 237 229 154 42 53 
102 128 144 156 153 145 135 121 105 88 59 40 32 30 28 103 188 218 117 109 118 
131 142 238 238 238 238 238 238 238 238 238 238 238 238 238 238 238 238 238 
238 238 240 243 213 131 40 79 114 139 156 161 153 146 134 120 102 80 49 33 31 
29 28 133 210 192 108 110 121 135 149 238 238 238 238 238 238 238 238 238 238 
238 238 238 238 238 238 238 238 237 233 239 185 101 43 104 128 148 161 156 138 
132 125 113 99 78 50 34 31 29 36 155 217 161 109 115 124 135 151 238 238 238 
238 238 238 238 238 238 238 238 238 238 238 238 238 238 238 237 235 240 161 
76 47 106 123 140 154 148 120 114 110 102 87 50 37 34 33 32 80 179 203 130 116 
121 126 134 147 238 238 238 238 238 238 238 238 238 238 238 238 238 238 238 
238 238 238 239 243 227 124 51 62 93 104 125 147 158 166 160 149 134 113 83 48 
32 31 31 134 199 186 111 119 126 133 139 146 238 238 238 238 238 238 238 238 
238 238 238 238 238 238 238 238 238 238 239 245 216 121 76 115 144 160 174 190 
203 214 209 202 194 181 160 116 66 31 27 168 205 167 100 118 130 139 144 147 
236 236 234 233 235 239 234 236 239 235 237 239 239 238 239 237 238 238 238 
240 218 165 149 186 209 223 231 235 242 243 241 240 241 242 231 197 139 85 74 
198 199 147 97 117 131 142 150 152 231 235 230 227 230 240 228 233 241 233 237 
242 240 238 243 237 241 240 235 236 237 240 241 238 231 232 236 237 235 237 
235 235 238 242 243 236 223 208 194 229 185 128 102 117 130 140 150 159 235 
241 242 237 231 229 239 238 236 243 240 239 239 241 247 243 241 238 237 246 
237 238 243 244 233 229 231 234 233 232 232 234 238 241 242 239 232 224 217 
234 179 117 93 123 144 149 150 157 172 141 124 112 104 166 149 128 124 144 158 
179 197 213 223 230 232 234 235 231 235 239 238 234 231 234 238 238 235 232 
233 236 238 240 240 239 239 239 239 240 223 196 169 141 130 136 152 168 129 
70 42 33 40 152 89 48 45 58 71 89 104 118 131 162 189 212 231 234 240 237 232 
230 236 237 236 238 241 236 237 238 239 239 238 239 241 244 247 239 238 232 
218 191 170 161 159 163 91 30 7 14 53 156 58 8 8 11 8 9 8 10 21 62 105 142 179 
210 230 233 231 231 242 237 232 234 245 242 241 241 240 238 238 238 239 241 
242 237 235 235 236 239 233 211 186 173 26 7 7 43 115 114 37 4 9 18 11 12 10 
4 2 1 4 13 37 91 165 218 237 233 235 240 238 236 238 241 241 239 238 238 238 
239 237 234 231 241 245 244 238 224 236 242 241 235 13 11 8 44 121 36 13 5 5 7 
5 14 14 11 15 6 3 8 18 25 34 95 177 238 240 232 236 241 237 235 235 235 235 
238 240 240 237 234 231 234 239 239 233 227 232 233 232 231 95 87 89 118 165 
82 79 84 86 82 70 70 47 13 11 8 6 8 10 3 10 29 70 126 201 229 232 232 241 232 
233 235 237 239 239 238 237 236 235 238 239 236 232 230 237 239 238 235 86 80 
112 149 163 124 125 129 130 128 118 114 68 11 11 23 30 25 12 0 8 8 13 34 107 
178 215 233 237 232 235 239 242 240 236 234 235 238 241 237 238 238 237 232 
236 240 242 238 9 11 87 139 126 126 129 127 124 125 127 117 65 8 13 52 69 61 
35 12 5 9 9 4 14 94 173 227 232 232 237 242 244 242 236 233 234 238 243 232 
235 241 243 234 231 234 240 239 5 3 110 169 118 128 141 133 118 116 127 79 36 
10 4 93 120 124 112 63 29 8 6 13 4 11 69 161 242 233 232 235 239 245 245 241 
238 237 237 238 235 234 239 239 232 232 236 239 85 102 146 157 115 105 114 120 
124 130 120 54 16 12 31 112 125 121 118 113 84 48 19 6 4 6 21 92 218 236 237 
235 235 236 236 236 236 238 240 241 239 240 243 242 235 236 241 244 79 142 148 
136 128 115 115 118 128 137 103 37 8 21 70 122 125 119 121 128 118 92 52 12 5 
5 21 96 228 240 240 237 234 232 232 233 235 238 240 240 239 239 242 240 235 
236 240 242 53 150 146 123 135 124 121 122 130 136 75 25 8 35 109 122 122 120 
120 125 125 112 69 14 6 7 59 149 236 241 241 240 238 234 234 235 237 237 237 
238 236 236 237 238 234 234 236 236 58 155 149 123 124 118 121 126 130 124 46 
15 13 52 140 118 120 121 118 121 121 103 58 7 7 8 103 208 230 237 241 243 242 
239 238 239 239 237 232 237 234 231 232 237 235 232 231 231 109 135 130 118 
111 123 126 132 128 103 19 4 28 81 148 122 122 120 110 113 131 96 43 7 7 8 116 
230 244 238 241 243 241 237 235 239 241 239 233 240 236 231 231 240 241 235 
230 230 174 130 113 111 111 134 131 132 116 70 12 12 52 106 132 122 120 118 
116 132 130 72 18 3 10 77 168 236 235 235 239 238 232 225 225 232 240 242 239 
235 231 228 227 233 236 231 225 225 151 82 60 59 60 84 88 99 87 35 7 25 71 120 
122 118 117 117 122 134 107 51 10 3 14 136 209 237 228 228 231 231 223 213 215 
226 236 241 239 228 227 226 223 224 228 226 221 219 73 28 14 11 9 22 32 48 45 
12 4 35 80 120 123 118 114 116 122 127 74 34 12 8 33 174 230 236 226 217 221 
221 215 206 209 221 232 236 232 220 224 227 222 216 220 223 222 218 24 17 18 
16 12 7 10 10 8 6 5 38 72 104 129 119 116 116 118 123 48 17 10 15 78 198 237 
236 231 206 211 215 212 205 208 221 230 231 223 217 226 231 225 214 219 225 
227 222 79 60 64 66 49 12 5 4 6 8 5 12 18 27 44 85 129 140 124 102 35 17 16 26 
145 223 240 233 225 208 216 222 218 209 215 231 240 236 220 223 226 223 217 
225 221 226 228 221 115 105 107 111 107 83 69 41 17 13 10 15 14 9 11 33 57 89 
112 72 27 13 22 56 185 230 238 231 217 215 222 224 222 218 223 234 240 237 226 
220 221 219 216 223 217 219 222 217 125 122 125 128 129 120 87 44 15 17 83 79 
46 8 5 12 20 43 68 40 19 10 37 102 214 233 238 232 218 226 227 227 227 228 231 
236 238 236 233 223 224 225 224 229 221 221 224 222 122 123 129 131 126 123 
65 21 13 41 180 167 111 53 36 17 12 14 17 12 11 9 62 162 235 237 238 235 227 
237 232 230 231 237 240 237 235 235 239 231 231 234 234 237 230 229 231 231 
117 124 134 134 119 119 45 9 35 108 201 196 192 177 120 27 6 10 15 5 6 11 88 
212 235 239 237 235 237 243 236 233 235 242 242 236 232 233 241 233 233 235 
237 237 232 231 232 233 112 121 123 123 118 87 35 9 54 163 198 188 189 196 189 
138 73 28 8 12 5 42 135 239 232 237 234 231 237 241 238 236 237 240 239 234 
231 232 237 235 232 231 232 231 233 233 233 232 124 124 119 119 122 49 25 22 
78 188 197 196 197 196 187 195 143 70 5 7 4 80 180 245 240 240 238 236 237 238 
238 237 238 238 236 232 231 232 235 240 237 235 235 232 240 241 239 238 
